<svg version="1.1" id="Calque_1" xmlns="http://www.w3.org/2000/svg" xmlns:xlink="http://www.w3.org/1999/xlink" x="0" y="0" viewBox="0 0 1512 1512" xml:space="preserve"><style>.st0{clip-path:url(#SVGID_2_);fill:#ea5b0c}</style><defs><path id="SVGID_1_" d="M0 0h1512v1512H0z"/></defs><clipPath id="SVGID_2_"><use xlink:href="#SVGID_1_" overflow="visible"/></clipPath><path class="st0" d="M800.7 1505.5C407.9 1525.2 72.6 1205 51.8 790.2 31 375.5 332.6 23.3 725.4 3.6c392.8-19.7 728.1 300.6 748.9 715.3 20.8 414.7-280.8 766.9-673.6 786.6M756 0C338.5 0 0 338.5 0 756s338.5 756 756 756 756-338.5 756-756S1173.5 0 756 0"/><path class="st0" d="M888 1483.8c-343.1 52-671-233.7-732.2-638.1C94.6 441.4 323.1 71.4 666.2 19.5c343.1-52 671 233.7 732.2 638.1 61.3 404.3-167.2 774.3-510.4 826.2M695.4 10.1c-368 37-632.8 399.7-591.5 810s373 713 741 676 632.8-399.7 591.5-810c-41.3-410.4-373.1-713-741-676"/><path class="st0" d="M970.9 1451c-294.2 75.3-613.2-178.1-712.4-565.9-99.2-387.8 58.8-763.2 353-838.5 294.2-75.3 613.2 178.1 712.4 565.9 99.2 387.8-58.8 763.2-353 838.5M638.2 31.7C319.7 96.4 126.8 470.5 207.5 867.4c80.6 396.8 404.2 666.1 722.7 601.4 318.5-64.7 511.3-438.9 430.7-835.7C1280.2 236.2 956.7-33 638.2 31.7"/><path class="st0" d="M1047.4 1407.7c-247.2 90.4-556-132.6-689.7-498.1S315.9 174.4 563.1 84c247.2-90.4 556 132.6 689.7 498.1 133.8 365.6 41.8 735.2-205.4 825.6M586.4 64.1c-270.4 83.8-394.7 457.7-277.7 835 117 377.4 431 615.3 701.4 531.5 270.4-83.8 394.7-457.7 277.7-835-117-377.4-431-615.4-701.4-531.5"/><path class="st0" d="M1219.2 572C1069.8 219.5 766.6 11 541.8 106.2 317.1 201.4 256 564.4 405.4 916.8c149.4 352.5 452.6 561 677.3 465.8 76.6-32.4 134.1-96 170.8-179.6-2.4 5.3-5 10.5-7.8 15.5-1.4 2.8-2.8 5.5-4.2 8.2-29.4 57.7-71.4 102.3-125.8 128.7-203.1 98.3-500.5-96.1-664.2-434.3C287.7 582.9 319.6 229 522.6 130.7c203.1-98.3 500.5 96.1 664.2 434.3 55.9 115.4 89 232.6 100.3 340.9 3.7 9 5.6 17.1 5.4 24.4 4 11.3 5.7 21.6 5.1 30.6 1.4 5.6 2.2 11 2.7 16.1 4-125.4-22.2-266-81.1-405"/><path class="st0" d="M1174.7 1295.3c-162.7 100-447.3-67.5-635.8-374.1s-209.4-636.3-46.8-736.3C654.8 84.9 939.5 252.4 1128 559c53.9 87.7 94.1 177.4 120.3 263 7.9 8.6 12.4 16.3 13 22.6 2.6 3.3 4.8 6.4 6.6 9.5-20.3-94.7-57.4-195-111.3-293.4C979.7 237.8 688.5 57 506.2 156.9c-182.4 99.9-186.8 442.6-10 765.5 176.9 322.9 468 503.7 650.4 403.8 40.5-22.2 72.2-56.3 95.1-99.5 1-1.9 1.9-3.9 2.9-5.8-17.5 31.2-40.7 56.5-69.9 74.4M1253.6 1203c.7-1.6 1.5-3.2 2.2-4.8-.1.2-.3.5-.4.7-.6 1.4-1.2 2.8-1.8 4.1M1251 1207c-2.1 4.7-4.2 9.3-6.4 13.9.4-.8.9-1.6 1.3-2.3 2.2-4.4 4.3-8.9 6.2-13.5-.4.6-.7 1.3-1.1 1.9M1261.8 1183.3c-1.9 5.1-3.9 10-6 14.8 4.1-7.9 7.7-16.3 10.9-25.1-1.4 3-2.9 6-4.4 8.8-.2.6-.4 1.1-.5 1.5"/><path class="st0" d="M1259.1 1187.6c-2.2 5.9-4.5 11.8-7 17.5 1.1-2 2.2-4.1 3.3-6.2 2.2-5.1 4.3-10.3 6.3-15.6.2-.4.3-.9.5-1.3-1 1.9-2 3.8-3.1 5.6M1222.6 1229.2c-126.6 96.5-397.1-45.6-604.3-317.3-207.2-271.7-272.5-570.2-146-666.7 126.6-96.5 397.1 45.6 604.3 317.3 53.8 70.5 98 142.9 131.8 213 11.8 7.8 18.4 14.7 18.7 20 .4.3.8.7 1.2 1-30.5-77.6-73.1-158.1-127-236.8-198.6-289.5-476.4-444.1-620.5-345.3-144 98.8-99.8 413.6 98.8 703.2 198.6 289.5 476.4 444.1 620.5 345.3 20.9-14.3 37.8-33.2 50.9-55.8 2.6-6 5.1-12.1 7.5-18.3-9.6 15.8-21.5 29.4-35.9 40.4M1266.7 1173.1c4-8.7 7.4-17.9 10.2-27.6-1.4 3.4-2.9 6.8-4.5 10-1.7 6.1-3.6 11.9-5.7 17.6M1262.2 1182c.1 0 .1 0 0 0 2.8-7.4 5.5-14.8 8-22.3-.5 1-1.1 1.9-1.6 2.8-1.9 6.7-4.1 13.2-6.4 19.5"/><path class="st0" d="M1266.2 1166.6c-2.4 7.5-5 14.9-7.7 22.1.2-.4.5-.7.7-1.1 2.5-6.9 4.8-13.9 7-21M1276.9 1145.5c3.7-9.1 6.7-18.9 8.9-29.4-1.3 3.7-2.7 7.3-4.3 10.7-1.3 6.5-2.8 12.7-4.6 18.7M1276.5 1139.2c.5-1.8 1.1-3.7 1.6-5.6-.2.4-.4.8-.6 1.1-.3 1.5-.6 3-1 4.5M1272.4 1155.5c1.5-5.3 2.9-10.8 4.1-16.3-2 7-4.1 13.8-6.3 20.6.8-1.5 1.5-2.9 2.2-4.3M1266.7 1165.1c-.1.5-.3 1-.4 1.4.8-1.3 1.6-2.6 2.4-4 2.1-7.4 4.1-14.9 5.8-22.6-.3.4-.5.8-.8 1.3-2.3 8.1-4.6 16.1-7 23.9"/><path class="st0" d="M1258.5 1159c-95.2 88.9-350-29.1-569.2-263.7-219.2-234.5-319.8-496.8-224.6-585.7 95.2-88.9 350 29.1 569.2 263.7 52.6 56.3 98.3 114.1 136.2 170.8 8.7 4 13.3 7.6 12.8 10.4 0 .2-.1.4-.2.6 2.2 1.1 4.3 2.2 6.2 3.2-36.2-63.2-81.5-128-134.8-191.1C840.1 313.7 577.2 183.9 467 277c-110.2 93.1-26.1 374 188 627.4 214.1 253.4 477 383.2 587.2 290.1 9.4-8 17.4-17.3 24.1-27.9.2-.5.3-1 .5-1.5 2.2-7.4 4.3-15 6.1-22.8-4.2 6.1-9 11.7-14.4 16.7M1285.8 1116.2c3.3-9.4 5.6-19.5 7-30.4-1.1 3.8-2.4 7.4-3.9 10.9-.7 6.8-1.8 13.2-3.1 19.5M1284.7 1107.3c.2-1 .4-1.9.6-2.9-.1.2-.2.4-.4.7 0 .7-.1 1.4-.2 2.2M1281.5 1126.9c1.3-6.4 2.3-12.9 3.2-19.6-2 8.9-4.2 17.7-6.6 26.4 1.2-2.3 2.3-4.5 3.4-6.8M1276.8 1127.8c-.8 4.1-1.6 8.1-2.5 12.1 1.1-1.7 2.1-3.4 3.1-5.2 1.6-7.8 2.9-15.7 4-23.9-.5.7-1 1.5-1.5 2.2-.9 5-1.9 9.9-3.1 14.8"/><path class="st0" d="M1278.4 1115.3c-1.6 9.2-3.5 18.2-5.6 27 .2-.4.5-.7.7-1.1 1.2-4.4 2.2-8.9 3.3-13.4.8-4.4 1.6-8.9 2.3-13.5-.2.3-.5.6-.7 1M1292.8 1085.8c2.8-9.5 4.4-19.9 4.9-31.1-.9 3.8-2 7.5-3.4 11.1-.1 6.9-.6 13.6-1.5 20M1290.3 1079.1l1.2-6.9c-.3.7-.7 1.3-1 1.9 0 1.7-.1 3.4-.2 5M1289 1096.8c.7-5.7 1.1-11.6 1.4-17.7-1.5 8.5-3.2 17-5 25.3 1.2-2.5 2.5-5 3.6-7.6M1283.1 1096.4c-.4 4.9-1 9.7-1.6 14.4 1.2-1.9 2.4-3.8 3.5-5.8.9-8.1 1.6-16.3 1.9-24.9-.5.8-1.1 1.5-1.6 2.3-.7 4.7-1.4 9.4-2.2 14M1282.6 1085.8c-.2 2.2-.5 4.3-.8 6.5-.7 7.5-1.7 14.8-2.7 22 .3-.4.6-.8.9-1.3 1.1-5.5 2.1-11 3.1-16.6.4-4.1.7-8.2.9-12.3-.4.6-.9 1.1-1.4 1.7"/><path class="st0" d="M1281.8 1086.8c-68.6 78.4-306.1-17.1-530.4-213.4-224.3-196.3-350.5-419-281.8-497.4 68.6-78.4 306.1 17.1 530.4 213.4 52 45.5 98.8 92.5 139.1 138.8 5.6 1.7 10.1 3.2 13.2 4.7-38.9-50.6-84.8-102.1-136.4-152.1-222.6-215.5-469-322.1-550.3-238.1-81.3 84 33.3 326.8 256 542.2 222.6 215.5 469 322.1 550.3 238.1 2.4-2.5 4.6-5 6.6-7.8 1.3-7.5 2.5-15.2 3.5-23 .2-2.1.4-4.2.6-6.2-.4.3-.6.6-.8.8M1297.7 1054.8c2.2-9.6 3.1-20.1 2.6-31.4-.7 3.8-1.6 7.5-2.9 10.9.5 7.1.6 13.9.3 20.5M1294.3 1053.6c.7-5.5 1.4-11 2.1-16.6-.8 1.9-1.6 3.7-2.6 5.5.3 3.8.4 7.5.5 11.1M1294.4 1065.8c.1-4 .1-8.1 0-12.2-.9 6.3-1.8 12.5-2.8 18.6 1-2.1 1.9-4.2 2.8-6.4M1287.1 1068.3c0 4-.1 8-.3 11.9 1.3-1.9 2.5-3.9 3.6-6 .2-8.3.1-16.8-.4-25.6-.3.5-.7.9-1 1.4-.5 6.1-1.1 12.2-1.9 18.3"/><path class="st0" d="M1286.9 1052.6c-.5.6-1 1.2-1.6 1.7l-.6 9.3c-.1 6.9-.3 13.8-.7 20.5.4-.5.8-1.1 1.3-1.6.7-4.7 1.3-9.4 1.9-14.2 0-5.2-.1-10.4-.3-15.7M1284.7 1054.9c-.2.2-.4.5-.7.7-.3 10.4-.8 20.5-1.7 30.5.1-.1.1-.2.2-.3.8-7.3 1.5-14.7 2.1-22.2.2-2.9.2-5.8.1-8.7M1299 1008.7c.7 5 1.1 9.9 1.3 14.6 1.7-9.5 1.7-20 .1-31.5l-.6 3.9c-.2 4.4-.5 8.7-.8 13"/><path class="st0" d="M1294.6 1010.6c1.1 6.7 2 13.2 2.6 19.6.7-7.1 1.3-14.2 1.9-21.4-.3-2-.6-4.1-.9-6.2-1.1 2.8-2.2 5.4-3.6 8M1297.5 1034.3c-.1-1.4-.2-2.8-.3-4.1-.2 2.3-.5 4.6-.7 6.9.3-1 .6-1.9 1-2.8M1291.1 1018.5c0-.9.1-1.8.1-2.8-.2.2-.3.4-.5.6.2.7.3 1.5.4 2.2"/><path class="st0" d="M1290.1 1048.5c1.4-1.9 2.6-3.9 3.7-6-.5-7.8-1.4-15.8-2.7-24-.3 8.1-.8 16.1-1.4 24.1.1 1.9.3 3.9.4 5.9M1286.4 1021.2c0 5.4-.1 10.8-.3 16.1.4 5.1.6 10.2.8 15.2.5-.6 1.1-1.2 1.6-1.9.2-.3.4-.5.6-.8.2-2.4.4-4.9.6-7.4-.5-7.3-1.3-14.7-2.3-22.3-.4.5-.7.8-1 1.1M1283.9 1023.4c.1 4 .2 8 .3 11.9.3 6.6.5 13.1.5 19.6l.6-.6c.3-5.6.6-11.2.7-16.9-.3-4.8-.8-9.8-1.3-14.7-.2.2-.5.4-.8.7M804.6 848.2c-222.1-158.1-364-339.9-316.9-406 47-66.1 265.2 8.5 487.3 166.7 49.9 35.5 95.8 72.3 136.4 108.6 4.5.8 8.2 1.7 11.1 2.4-40.1-40.5-85.9-81.4-136.1-121.1-224.1-177.1-452.2-262-509.4-189.5-57.2 72.4 78 274.7 302.1 451.8 218.8 172.9 441.3 257.9 505 194.5.2-6.7.2-13.4.1-20.2-.2-3.8-.4-7.7-.7-11.6-60.6 49.4-268-25.4-478.9-175.6M1300.4 991.9c.6-4.7.6-9.7.2-15-.1 4.3-.3 8.7-.5 13 .1.6.2 1.3.3 2"/><path class="st0" d="M1298.1 1002.6c.7-2.2 1.3-4.4 1.8-6.8l.3-6c-.9-6-2.3-12.3-4.1-18.8-.8 2.7-2 5.2-3.4 7.6 2.3 8.3 4.1 16.3 5.4 24M1291.7 980.1c-.9 1.3-1.9 2.6-2.9 3.9 1.1 4.1 2.1 8.1 2.9 12.1.1-5.3.1-10.7 0-16M1291.2 1015.7l.6-.9c1-1.4 1.9-2.8 2.7-4.3-.8-4.7-1.8-9.6-2.9-14.5 0 6.6-.1 13.2-.4 19.7M1285.8 990.5c0-1.1-.1-2.3-.1-3.4-.2.2-.4.3-.5.5.1 1 .3 1.9.6 2.9M1287.3 1020.2c1.2-1.2 2.4-2.5 3.4-3.9-1.3-8.4-3-17-5-25.8.3 7.6.5 15.2.6 22.7.4 2.4.7 4.7 1 7"/><path class="st0" d="M1283.4 1010.6c.5 4.1 1 8.1 1.4 12.1.5-.5 1.1-1 1.6-1.4v-8c-1.2-7.6-2.5-15.4-4.2-23.3-.1.1-.2.1-.2.2.5 6.8 1 13.6 1.4 20.4M1280.3 991.2c1.4 11 2.5 21.9 3.2 32.6.1-.1.3-.2.4-.3-.1-4.2-.3-8.5-.6-12.8-.8-6.4-1.8-13-2.9-19.6l-.1.1M1290.3 942.3c.3 4.3.5 8.6.7 12.8 1.9 5.4 3.6 10.7 5 15.9 1-3.2 1.6-6.6 1.9-10.3-1.6-6.6-3.8-13.6-6.7-20.9-.2.9-.5 1.7-.9 2.5M1283.8 951.8c3 7.9 5.6 15.7 7.8 23.2-.1-6.6-.3-13.2-.6-19.8-1-2.7-2-5.5-3.1-8.3-1.2 1.7-2.5 3.4-4.1 4.9M1292 979.6c.2-.3.4-.7.6-1.1-.3-1.2-.7-2.4-1-3.6 0 1.7.1 3.4.1 5.1.1-.1.2-.2.3-.4M1284.6 969.2c-.4-5.6-.9-11.2-1.4-16.8-1 .9-2.1 1.8-3.3 2.6 1.7 4.8 3.2 9.6 4.7 14.2M1288.8 983.9c-1.3-4.8-2.7-9.7-4.2-14.7.4 6 .8 12 1.1 17.9 1-1 2.1-2 3.1-3.2M1279.5 966.3c-.4-3.4-.8-6.7-1.3-10.1l-1.5.9c1 3.1 1.9 6.1 2.8 9.2M1282.2 989.9c1-.7 2-1.5 2.9-2.3-1.7-7-3.5-14.1-5.6-21.3.9 7.2 1.6 14.3 2.2 21.3.2.8.3 1.5.5 2.3M1276.4 964.8c-.4-2.3-.8-4.6-1.2-7-.2.1-.4.2-.5.3.6 2.3 1.2 4.5 1.7 6.7M1280.5 991c.5-.3 1-.6 1.4-1-.1-.8-.1-1.6-.2-2.4-1.6-7.5-3.3-15.1-5.3-22.8 1.2 7.3 2.3 14.5 3.3 21.6.3 1.6.5 3.1.8 4.6M1101.3 715.8c-.6-.5-1.3-1-1.9-1.5-.9.2-2.1.5-3.7.7 2 .2 3.8.5 5.6.8"/><path class="st0" d="M849.2 821.4C636.5 700 488.6 558.8 518.8 505.9c30.2-52.9 227 2.6 439.7 123.9 46.1 26.3 89.1 53.5 128 80.6 4 .4 7.3.8 9.7 1.3-39.4-31-83.2-62.2-130.5-92.4C747.4 479.8 539.6 415 501.6 474.5s108.1 220.9 326.3 360.3c201.5 128.8 394.1 193.9 452.4 156.3-.2-1.6-.4-3.2-.6-4.7-1.6-9.2-3.5-18.5-5.6-28-56.8 27.5-234.5-28.4-424.9-137M1283.7 909.5c1.8 3.5 3.5 7 5 10.4-.4-4.7-.9-9.4-1.4-14.1-.7-1.8-1.5-3.5-2.4-5.4.2 3.3-.3 6.3-1.2 9.1M1290 936.7c.4 1.1.9 2.1 1.3 3.2 1-3 1.5-6.3 1.5-9.7-1.2-3.3-2.5-6.8-4.1-10.3.5 5.6.9 11.2 1.3 16.8M1279.1 917.2c.6 4.4 1.2 8.7 1.7 13 2.6 5.7 5 11.2 7.1 16.7.3-.5.7-1 1-1.6.6-1 1-2 1.5-3-.1-1.9-.2-3.7-.4-5.6-2.8-6.7-6-13.7-9.8-20.9-.3.5-.7 1-1.1 1.4"/><path class="st0" d="M1272.8 922.2c.3 1.7.6 3.3.9 5 3.4 7.5 6.4 14.8 9.2 21.9-.6-6.3-1.3-12.6-2.1-19-1.5-3.3-3.2-6.7-4.9-10.1-1 .9-2 1.6-3.1 2.2M1283.2 952.4c.2-.2.5-.4.7-.6-.3-.9-.7-1.7-1-2.6.1 1 .2 2.1.3 3.2M1268.4 924.5c.1.4.2.8.3 1.1 2.9 6.9 5.6 13.8 8.1 20.5-.9-6.3-2-12.6-3.1-18.9-.7-1.4-1.3-2.9-2-4.3-1.1.6-2.2 1.1-3.3 1.6M1279.9 955c-1-2.9-2.1-5.9-3.2-8.9.5 3.3 1 6.7 1.4 10 .7-.3 1.2-.7 1.8-1.1M1265.9 925.5c2.4 6.4 4.7 12.8 6.8 19.1-1.3-6.3-2.6-12.6-4-18.9-.1-.4-.3-.7-.4-1-.8.2-1.6.5-2.4.8M1276.7 957c-1.3-4.1-2.6-8.3-4-12.5.9 4.5 1.7 8.9 2.5 13.3.5-.2 1-.5 1.5-.8"/><path class="st0" d="M1270.7 943.9c-1.5-6.1-3.1-12.2-4.8-18.4-.3.1-.5.2-.8.3 1.9 6.1 3.8 12.1 5.6 18.1M1274.7 958.1c-1.3-4.7-2.6-9.4-4-14.2 1.2 4.9 2.3 9.7 3.4 14.5l.6-.3M1273.3 880.1c4.7 7.1 8.6 13.9 11.7 20.3-.3-8.2-3.9-17.8-10.5-28.6.2 3-.2 5.8-1.2 8.3M1269.5 885.7c2.2 3.3 4.3 6.5 6.2 9.7-.8-5-1.7-10-2.6-15 0 .1 0 .1-.1.2-.8 1.9-2 3.6-3.5 5.1M1278.4 912.3c.6 1.2 1.2 2.3 1.9 3.5.9-1.1 1.7-2.3 2.3-3.6.4-.9.8-1.8 1.1-2.7-2.4-4.6-5-9.2-7.9-14 .9 5.6 1.8 11.2 2.6 16.8M1266.8 892.3c-.3-1.2-.5-2.5-.8-3.7-.3.2-.7.5-1.1.7.6 1 1.2 2 1.9 3M1270.3 909.3c2 3.6 3.8 7.2 5.6 10.8 1.2-.9 2.2-1.9 3.2-2.9-.2-1.6-.5-3.3-.7-4.9-3.5-6.5-7.4-13.2-11.6-20 1.2 5.7 2.4 11.4 3.5 17M1260.1 891.6c1.5 5.4 2.9 10.8 4.2 16.2 2.6 5.1 5 10.1 7.3 15.1.4-.2.7-.4 1.1-.6-.8-4.3-1.6-8.6-2.5-12.9-3.1-5.8-6.5-11.7-10-17.7 0-.1 0-.1-.1-.1"/><path class="st0" d="M1256.1 893c1.5 4.7 3 9.3 4.4 14 2.7 5.9 5.3 11.8 7.7 17.6.1 0 .1-.1.2-.1-1.3-5.5-2.6-11.1-4-16.7-2.5-4.9-5.1-9.9-7.8-14.9-.2 0-.4.1-.5.1M1253.7 893.7c1.6 4.3 3.2 8.7 4.8 12.9 2.5 6.1 4.9 12.2 7.1 18.2-1.6-5.9-3.4-11.8-5.2-17.8-2-4.4-4.2-8.9-6.4-13.4 0 0-.1.1-.3.1M1265.8 925.5c.1 0 .1 0 0 0 0-.3-.1-.5-.2-.7.1.2.2.5.2.7M885.9 794.8c-196.1-87.2-340.8-190.1-323.1-230s191-1.4 387.2 85.8c42.7 19 83 38.7 119.6 58.4 2.9.2 5.6.4 8.1.6-38-23.3-79.8-46.7-124.4-69.3C748 536.5 562.6 489.8 539.2 536.1c-23.4 46.3 124 168 329.2 271.9 178.1 90.1 341.2 137.2 396.6 117.8-2.1-6.3-4.3-12.7-6.6-19.2-1.7-4.2-3.5-8.5-5.4-12.8-53.8 13.1-202.4-25.8-367.1-99M1274.5 871.8c-.4-5.3-2.6-11.2-6.6-17.7.8 3.8 1.6 7.5 2.3 11.3 1.5 2.2 3 4.3 4.3 6.4M1257.7 855.1c.5 2 1.1 4 1.6 6 5.1 6.4 9.7 12.6 13.7 18.6-.9-4.8-1.8-9.5-2.8-14.3-3-4.3-6.4-8.8-10.3-13.4-.5 1.1-1.3 2.2-2.2 3.1M1273.3 880.1c-.1-.1-.2-.3-.3-.4 0 .2.1.5.1.7.1-.1.1-.2.2-.3"/><path class="st0" d="M1250.8 859.9c4.4 5.6 8.5 11 12.3 16.4-1.2-5-2.5-10.1-3.8-15.2-1.1-1.4-2.3-2.9-3.5-4.3-1.4 1.1-3.1 2-5.1 2.9 0 .1.1.1.1.2M1269.5 885.7c-2.1-3.1-4.2-6.2-6.5-9.4 1 4.1 2 8.3 2.9 12.4 1.4-1 2.6-1.9 3.6-3"/><path class="st0" d="M1255.4 875c-1.5-5-3-10.1-4.6-15.1l-.2-.2c-1.5.6-3.1 1.2-4.9 1.7 3.4 4.6 6.6 9.1 9.7 13.6M1260.3 891.6c1.7-.7 3.2-1.4 4.6-2.2-3-4.7-6.1-9.5-9.4-14.3 1.6 5.3 3.1 10.6 4.5 15.9l.3.6M1249.8 874.5c-1.5-4.3-3.1-8.6-4.7-12.9-1.1.3-2.2.6-3.3.8 2.8 4.1 5.4 8.1 8 12.1"/><path class="st0" d="M1249.8 874.5c1.9 5.3 3.6 10.5 5.4 15.8.5.9.9 1.7 1.4 2.6 1.2-.4 2.4-.8 3.6-1.3-.1-.2-.1-.4-.2-.7-3.3-5.4-6.7-10.8-10.2-16.4M1246.1 874.3c-1.6-3.9-3.2-7.8-4.9-11.8-.6.1-1.3.2-1.9.3 2.3 3.9 4.6 7.7 6.8 11.5M1252.3 890l1.8 3.6c.7-.2 1.3-.4 2-.5-.3-.9-.6-1.8-.9-2.8-2.9-5.3-5.9-10.6-9.1-16 2.1 5.2 4.2 10.5 6.2 15.7M1244.3 874.2c-1.8-3.7-3.5-7.5-5.4-11.3-.2 0-.4.1-.6.1 2 3.8 4 7.5 6 11.2"/><path class="st0" d="M1253.1 893.8c.2-.1.4-.1.6-.2-.5-1.2-.9-2.5-1.4-3.7-2.6-5.2-5.3-10.4-8-15.7 3.1 6.6 6 13.2 8.8 19.6M1245.1 822.9c-.3.9-.8 1.8-1.4 2.6 2.8 2.7 5.5 5.4 7.9 8-1.1-3.8-2.3-7.7-3.4-11.5-.9-.9-1.8-1.9-2.7-2.9.1 1.4 0 2.6-.4 3.8M1255.4 846.8c1.6 1.8 3.1 3.5 4.5 5.2.2-.4.4-.8.6-1.3.7-1.9.9-3.9.7-6.1-2.8-3.6-6-7.3-9.6-11.1 1.4 4.5 2.6 8.9 3.8 13.3M1241.5 832c-.4-1.1-.8-2.3-1.2-3.4-.4.3-.9.6-1.4.8.9.9 1.8 1.7 2.6 2.6M1246.2 845.6c3.4 3.8 6.6 7.5 9.6 11.2.7-.5 1.4-1.1 1.9-1.7-.7-2.8-1.5-5.5-2.3-8.3-4.2-4.8-8.9-9.7-13.9-14.8 1.6 4.6 3.2 9.1 4.7 13.6M1233.7 832.1c-.1-.2-.1-.3-.2-.5-.1 0-.1 0-.2.1l.4.4M1239 845.5c4.1 4.8 7.9 9.5 11.6 14.2h.1c-1.5-4.7-3-9.4-4.6-14.1-3.9-4.4-8.1-8.9-12.5-13.5 1.9 4.5 3.7 8.9 5.4 13.4"/><path class="st0" d="M1227.9 832.9c2 4.3 4 8.5 5.9 12.8 3.7 4.7 7.2 9.3 10.6 13.9-1.7-4.7-3.5-9.4-5.4-14.1-3.5-4.2-7.2-8.4-11-12.6h-.1M1245.7 861.4c-.4-.6-.9-1.2-1.3-1.8.2.7.5 1.3.7 2 .2-.1.4-.1.6-.2"/><path class="st0" d="M1223.9 833.5c2.2 4.1 4.4 8.2 6.5 12.3 3.3 4.6 6.5 9.2 9.6 13.7-2-4.6-4-9.2-6.1-13.9-3.2-4-6.4-8.1-9.8-12.2-.1.1-.2.1-.2.1M1241.8 862.4c-.6-.9-1.3-1.9-1.9-2.8.4 1 .8 2 1.3 3 .2-.1.4-.2.6-.2M1221.5 833.8c2.5 4.1 4.8 8.2 7.2 12.2 3 4.6 5.8 9.1 8.6 13.6-2.2-4.6-4.6-9.1-6.9-13.8-2.9-3.9-5.8-8-8.9-12M1239.3 862.9c-.7-1.1-1.3-2.2-2-3.2.5 1.1 1.1 2.2 1.6 3.3.1-.1.2-.1.4-.1M915.5 769.9C742.6 713 609.8 644.4 618.9 616.7c9.1-27.7 156.7-3.9 329.6 53 37.7 12.4 73.5 25.4 106.4 38.4 2.5.1 4.8.3 7.1.4-35-16.2-73.2-32.5-113.6-48-185.3-71.5-346.1-102.3-359-68.7-13 33.6 126.8 118.8 312.1 190.3 150.4 58 284.6 89.2 336.8 81-3.1-5.6-6.3-11.3-9.6-17-2.6-4-5.3-8.1-8-12.1-50.1 4.7-169.9-19.5-305.2-64.1M1245.5 819.1c-.6-6.2-6.6-13.8-17.2-22.6 1.4 3.6 2.8 7.1 4.1 10.7 5 4.1 9.4 8.1 13.1 11.9"/><path class="st0" d="M1223.1 807.3c4.9 4 9.5 8 13.8 11.9-1.5-4-2.9-8-4.5-12-2.5-2.1-5.1-4.2-7.9-6.3-.9.8-2 1.5-3.4 2.1.7 1.4 1.4 2.9 2 4.3M1240.3 828.6c1.4-.9 2.6-1.9 3.4-3.1-2.2-2.1-4.4-4.2-6.8-6.4 1.2 3.2 2.3 6.4 3.4 9.5"/><path class="st0" d="M1215.9 808.3c4.3 3.8 8.5 7.5 12.4 11.1-1.7-4-3.5-8-5.2-12.1-1.4-1.1-2.8-2.3-4.2-3.4-1.4.5-2.9.9-4.6 1.2.6 1.1 1.1 2.1 1.6 3.2M1238.9 829.4c-3.4-3.3-6.9-6.6-10.6-10 1.7 4.1 3.4 8.1 5.1 12.2 2.1-.6 4-1.4 5.5-2.2"/><path class="st0" d="M1210.5 809.2c3.9 3.7 7.7 7.3 11.3 10.8-1.9-3.9-3.9-7.9-5.9-11.8-1.1-.9-2.1-1.8-3.2-2.8-1.3.2-2.6.4-4 .6.6 1.2 1.2 2.2 1.8 3.2M1228 832.9c1.9-.3 3.6-.8 5.2-1.2-3.7-3.8-7.5-7.7-11.5-11.6 2 4.2 4 8.3 6 12.4.1.1.2.3.3.4M1206.7 810c3.5 3.6 6.9 7.2 10.3 10.8-2.1-3.8-4.3-7.7-6.5-11.5-1.1-1-2.1-2-3.2-3-.9.1-1.9.2-2.8.3.7 1.1 1.5 2.3 2.2 3.4M1217 820.8c2.3 4.1 4.5 8.1 6.6 12.2.1.2.3.4.4.5l3.9-.6c-.1-.1-.1-.2-.2-.4-3.4-3.9-7-7.8-10.7-11.7"/><path class="st0" d="M1204.4 810.5c3.2 3.6 6.3 7.2 9.4 10.8-2.3-3.7-4.7-7.5-7.1-11.3-1.1-1.1-2.2-2.2-3.3-3.4-.5 0-1.1.1-1.6.1.9 1.3 1.7 2.5 2.6 3.8M1221.1 833.2c.1.2.3.4.4.6.8-.1 1.6-.2 2.3-.3l-.3-.6c-3.2-3.9-6.4-7.8-9.8-11.7 2.6 4.1 5 8.1 7.4 12"/><path class="st0" d="M1212.3 821.6l-7.8-11.1c-1.1-1.2-2.2-2.4-3.3-3.7h-.5c3.9 5 7.8 9.9 11.6 14.8M1220.7 833.9c.3 0 .5-.1.8-.1l-.3-.6c-2.9-3.9-5.8-7.8-8.9-11.7 2.8 4.2 5.6 8.3 8.4 12.4M1206.1 774.5c-.3 1.5-1.6 2.8-3.6 3.8 3.7 2.3 7.2 4.6 10.5 6.8-1.5-3.2-3-6.4-4.6-9.6-.7-.5-1.5-1-2.3-1.5.1.2.1.4 0 .5M1218 795.9c2.3 1.7 4.5 3.3 6.6 5 1.2-1 2-2.2 2.3-3.4.2-.6.2-1.3.2-2-4.1-3.3-8.8-6.7-14.1-10.3 1.7 3.5 3.4 7.1 5 10.7M1204.5 786.4l-3.9-7.2c-1.4.5-3 1-4.8 1.4 3 1.9 5.9 3.8 8.7 5.8"/><path class="st0" d="M1210.2 797c3 2.3 5.9 4.6 8.8 6.9.8-.3 1.6-.6 2.3-.9-1.1-2.4-2.1-4.7-3.2-7.1-4.2-3.1-8.7-6.3-13.5-9.5 1.8 3.5 3.7 7.1 5.6 10.6M1198 787.9c-1.4-2.3-2.8-4.6-4.2-7-1.4.2-3 .5-4.6.6 3 2.2 5.9 4.3 8.8 6.4M1204.2 798.3c2.9 2.4 5.8 4.8 8.5 7.2.6-.1 1.1-.2 1.7-.3l-4.2-8.1c-3.9-3-8-6-12.2-9.1 2.1 3.4 4.1 6.8 6.2 10.3M1193 789.3c-1.7-2.5-3.4-5-5.2-7.6-1.3.1-2.7.2-4.1.3 3.2 2.5 6.3 4.9 9.3 7.3M1199.8 799.4c2.6 2.3 5.1 4.6 7.5 6.9.5-.1.9-.1 1.4-.2l-4.5-7.8c-3.6-3-7.3-6-11.1-9 2.2 3.4 4.5 6.7 6.7 10.1M1189.6 790.3c-2.1-2.7-4.2-5.5-6.3-8.2-1 .1-2 .1-3.1.2 3.2 2.6 6.3 5.3 9.4 8"/><path class="st0" d="M1196.9 800.1l6.5 6.5c.4 0 .7-.1 1.1-.1-1.6-2.4-3.1-4.8-4.7-7.2-3.3-3-6.7-6-10.2-9.1 2.5 3.4 4.9 6.6 7.3 9.9M1178.6 782.4c3 2.9 6 5.7 8.9 8.5-2.4-2.9-4.9-5.8-7.4-8.7-.5 0-1.1 0-1.6.1l.1.1M1195.5 800.5l5.7 6.3h.6c-1.6-2.2-3.2-4.4-4.9-6.7-3.1-3-6.2-6.1-9.4-9.2 2.7 3.2 5.4 6.4 8 9.6M1178.5 782.3c-43.9 1.3-135.3-11.2-239.3-34.2-143.6-31.8-257-71.5-253.2-88.7 3.8-17.2 123.3-5.3 266.9 26.5 31.3 6.9 61.2 14.2 88.7 21.6 2.2.1 4.3.2 6.4.3-30.4-10-63.4-20-98-29.5-159-43.7-292.8-61.1-298.9-38.9-6 22.1 117.9 75.5 276.9 119.1 119.8 32.9 225.3 50.9 272.6 48.3-1.7-2.1-3.4-4.2-5.2-6.4-5.4-6-11.1-12-16.9-18.1.1.1 0 0 0 0M1206.2 774c.4-4.2-5.7-9.6-17.2-15.8 1.6 2.8 3.2 5.7 4.8 8.5 4.5 2.5 8.7 5 12.4 7.3M1180.4 759.7c-.4-.7-.9-1.3-1.3-2-.5.2-1 .4-1.6.6.9.4 1.9.9 2.9 1.4M1199.1 776.2c-1.7-3.2-3.5-6.3-5.3-9.5-4.1-2.3-8.6-4.6-13.4-7 1.9 3 3.8 6 5.7 8.9 4.5 2.6 8.9 5.1 13 7.6M1173.9 762c-.6-.9-1.2-1.7-1.9-2.6-.8.1-1.5.2-2.4.3 1.5.8 2.9 1.5 4.3 2.3M1200.7 779.2c.7-.3 1.3-.5 1.8-.8-1.1-.7-2.3-1.4-3.5-2.1.6.9 1.1 1.9 1.7 2.9M1191.9 778c-1.9-3.1-3.9-6.3-5.9-9.4-3.9-2.2-7.9-4.4-12.1-6.7 2.1 2.9 4.2 5.8 6.2 8.7 4.1 2.5 8 5 11.8 7.4M1169 764c-1-1.3-2.1-2.6-3.1-3.8-1 .1-2 .2-3.1.2 2.1 1.2 4.2 2.4 6.2 3.6M1195.8 780.6c-1.3-.8-2.6-1.7-3.9-2.5.6 1 1.2 1.9 1.8 2.9.8-.2 1.5-.3 2.1-.4M1186.5 779.7c-2.1-3-4.2-6.1-6.4-9.1-3.6-2.2-7.3-4.4-11.1-6.7 2.2 2.8 4.4 5.6 6.6 8.3 3.8 2.6 7.4 5.1 10.9 7.5M1165.4 765.5c-1.5-1.7-3-3.3-4.5-5-1 0-2 .1-3 .1 2.5 1.6 5.1 3.3 7.5 4.9M1189.1 781.6c-.9-.6-1.8-1.2-2.6-1.9.5.7.9 1.3 1.4 2 .4 0 .8-.1 1.2-.1M1182.5 781.1c-2.3-2.9-4.5-5.8-6.8-8.8-3.3-2.3-6.7-4.5-10.2-6.8 2.4 2.7 4.8 5.3 7.1 8 3.3 2.5 6.7 5 9.9 7.6M1163.1 766.5l-5.9-5.9c-.7 0-1.4 0-2.2.1 2.7 1.9 5.4 3.9 8.1 5.8M1183.8 782c-.4-.3-.9-.7-1.3-1 .3.3.5.7.8 1 .2.1.3.1.5 0M1179.9 781.9c-2.4-2.8-4.9-5.6-7.4-8.5-3.1-2.3-6.2-4.6-9.4-7 2.6 2.6 5.1 5.1 7.6 7.7 3.1 2.7 6.2 5.3 9.2 7.8M1161.9 767c-2.3-2.1-4.7-4.2-7.1-6.4h-.8c2.7 2.2 5.3 4.3 7.9 6.4M1180.2 782.2l-.3-.3.3.3"/><path class="st0" d="M1178.5 782.3l-7.8-8.1c-2.9-2.4-5.8-4.8-8.8-7.2 5.7 5.1 11.2 10.2 16.6 15.3M1156.6 738.6c1.8 2.4 3.7 4.8 5.5 7.3 4.6 1.9 8.9 3.7 12.8 5.4-1.6-2.4-3.2-4.9-4.8-7.3-3.8-1.7-8.2-3.5-13.5-5.4.1 0 0 0 0 0M1150.3 741.3c-.1-.2-.3-.3-.4-.5-.2 0-.4.1-.6.1.3.1.7.3 1 .4M1179.1 757.7c1.9-.8 3.2-1.7 3.7-2.7-2.4-1.2-5-2.4-7.8-3.7 1.3 2.2 2.7 4.3 4.1 6.4"/><path class="st0" d="M1156.4 748.5c4 1.8 7.9 3.5 11.6 5.2-1.9-2.6-3.9-5.2-5.8-7.8-3.7-1.5-7.7-3-11.8-4.6 1.9 2.4 4 4.8 6 7.2M1145.5 743.8c-.7-.7-1.4-1.5-2.1-2.2-.9.1-1.7.1-2.7.2 1.7.7 3.3 1.4 4.8 2M1177.4 758.3c-3.1-1.5-6.2-3-9.5-4.5l4.2 5.7c2-.4 3.9-.8 5.3-1.2"/><path class="st0" d="M1152 750.7l10.6 5.3c-2.1-2.5-4.1-5-6.2-7.6-3.5-1.5-7.1-3.1-10.8-4.7 2.1 2.4 4.2 4.7 6.4 7M1142 745.8c-1.3-1.3-2.7-2.6-4-3.8-1.2.1-2.4.1-3.7.2 2.6 1.2 5.1 2.4 7.7 3.6M1169.7 759.7c-2.3-1.2-4.7-2.5-7.1-3.7 1.1 1.4 2.2 2.7 3.3 4.1 1.4-.1 2.6-.2 3.8-.4"/><path class="st0" d="M1148.8 752.4c3.3 1.9 6.6 3.7 9.8 5.5l-6.6-7.2c-3.3-1.6-6.6-3.2-10-4.9 2.3 2.2 4.5 4.4 6.8 6.6M1130.7 742.6c3 1.6 5.9 3.1 8.8 4.7l-6-5.1c-1 0-2.1.1-3.2.1.2.1.3.2.4.3M1162.8 760.3l-4.2-2.4c.8.8 1.5 1.7 2.3 2.5.7 0 1.3 0 1.9-.1M1146.7 753.5c3.1 1.9 6.1 3.9 9.1 5.8-2.3-2.3-4.7-4.6-7-6.9-3-1.7-6.1-3.4-9.3-5.1 2.4 2 4.8 4.1 7.2 6.2"/><path class="st0" d="M1129.8 743.1c2.8 1.7 5.5 3.3 8.2 5-2.4-1.9-4.8-3.7-7.3-5.6-.2-.1-.3-.2-.5-.3h-1.6c.4.4.8.7 1.2.9M1157.9 760.6c-.7-.4-1.4-.9-2.1-1.3l1.4 1.4c.2-.1.4-.1.7-.1M1145.6 754c2.9 2 5.7 4 8.5 6l-7.5-6.6c-2.8-1.8-5.7-3.6-8.7-5.3 2.7 2 5.2 4 7.7 5.9M1155 760.7l-.9-.6c.2.2.5.4.7.6h.2M1128.4 742.3c-35.1.6-98.3-3.7-170.2-12.2-109-12.9-196.5-30.5-195.4-39.4 1-8.9 90.2-5.6 199.2 7.3 23.7 2.8 46.5 5.8 67.5 9 2 .1 4 .2 6 .2-24.4-5.1-50.8-10-78.5-14.7-126.9-21.5-231.5-28.6-233.7-15.9-2.2 12.7 99 40.5 225.9 62 87.8 14.9 164.9 22.9 204.8 22.2-2.8-2.2-5.6-4.4-8.4-6.7-5.2-3.6-10.5-7.3-15.8-10.9-.5-.3-.9-.6-1.4-.9M1156.7 738.6c.5-.4.8-.8.8-1.2.2-1.3-1.7-2.8-5.2-4.5 1.4 1.9 2.9 3.8 4.4 5.7-.1 0-.1 0 0 0M1127.6 725.2c1.9 1.9 3.8 3.9 5.6 5.8 3.9 1.2 7.7 2.3 11.2 3.5l-5.4-6.3c-3.3-1-7.1-2-11.2-3h-.2M1122.9 728c-.6-.5-1.2-1.1-1.8-1.6-.9.1-1.9.2-3 .3 1.6.4 3.2.8 4.8 1.3M1144.5 734.5c1.8 2.1 3.6 4.2 5.4 6.4 3.3-.6 5.6-1.3 6.7-2.2-3.7-1.5-7.7-2.8-12.1-4.2"/><path class="st0" d="M1129.1 733.7c3.5 1.2 6.9 2.4 10.2 3.6l-6-6.3c-3.3-1-6.8-2-10.4-3 2.1 1.9 4.1 3.8 6.2 5.7M1110.4 727.5c3.1 1 6.1 2 9 2.9-1.4-1.2-2.9-2.4-4.3-3.5-1.6.1-3.3.2-5.1.3.2.1.3.2.4.3M1149.3 740.9c-3.2-1.2-6.6-2.4-10-3.7 1.4 1.5 2.8 2.9 4.1 4.4 2.2-.2 4.2-.4 5.9-.7"/><path class="st0" d="M1125.9 735.8c3.2 1.3 6.4 2.6 9.5 3.8-2.1-2-4.2-4-6.3-5.9-3.1-1.1-6.3-2.1-9.6-3.2 2.1 1.7 4.3 3.5 6.4 5.3M1108.5 729.1c2.9 1.1 5.7 2.2 8.4 3.2-2.2-1.6-4.3-3.2-6.5-4.8l-.9-.3c-1.2.1-2.4.1-3.6.1.9.6 1.7 1.2 2.6 1.8M1140.8 741.8c-1.8-.7-3.6-1.5-5.4-2.2.8.8 1.7 1.6 2.5 2.4 1-.1 2-.1 2.9-.2"/><path class="st0" d="M1123.7 737.3c3 1.4 5.9 2.7 8.8 4.1-2.2-1.9-4.4-3.7-6.7-5.6-2.9-1.2-5.9-2.3-8.9-3.5 2.3 1.7 4.6 3.3 6.8 5M1107.4 730c2.7 1.2 5.3 2.3 7.9 3.5-2.2-1.5-4.5-3-6.8-4.4-1.4-.5-2.9-1.1-4.3-1.6h-1.2c1.5.8 2.9 1.6 4.4 2.5M1134.2 742.2c-.6-.3-1.1-.5-1.7-.8.3.3.6.5 1 .8h.7"/><path class="st0" d="M1122.4 738.2c2.6 1.4 5.2 2.7 7.8 4.1h.2c-2.2-1.7-4.4-3.3-6.6-5-2.8-1.3-5.6-2.5-8.4-3.8 2.3 1.6 4.7 3.1 7 4.7M1114.6 734.1l-7.2-4.2c-1.9-.8-3.8-1.7-5.7-2.5h-.2c4.4 2.3 8.8 4.5 13.1 6.7"/><path class="st0" d="M1128.4 742.3h.1c-2-1.4-4.1-2.7-6.1-4.1-2.6-1.4-5.2-2.7-7.9-4.1 4.8 2.8 9.4 5.5 13.9 8.2M1127.8 725.1c1.4-.4 2.2-1 2.2-1.5.1-1.1-2.6-2.4-7.6-3.7l5.1 5.1c.1.1.2.1.3.1M1107.1 720.4c3.4.7 6.7 1.4 9.8 2.1-1.9-1.7-3.7-3.4-5.6-5.1-3-.6-6.4-1.1-10-1.7 2 1.6 3.9 3.2 5.8 4.7M1089.5 716.9c2.9.6 5.8 1.1 8.5 1.7-1.6-1.1-3.2-2.2-4.8-3.4-1.7.2-3.6.3-5.7.5.7.4 1.3.8 2 1.2M1116.9 722.6c1.4 1.3 2.8 2.5 4.2 3.8 2.8-.3 5-.7 6.5-1.2l-.1-.1c-3.3-.9-6.8-1.7-10.6-2.5M1104.1 723c3.1.8 6.1 1.6 9.1 2.4-2-1.6-4-3.3-6.1-4.9-2.9-.6-6-1.2-9.1-1.9 2.1 1.4 4.1 2.9 6.1 4.4M1087.6 718.8c2.7.7 5.4 1.3 8 2-2-1.3-4.1-2.6-6.2-3.9-1.7-.3-3.5-.7-5.3-1-.5 0-1.1.1-1.6.1 1.7 1 3.4 1.9 5.1 2.8M1078.4 716.2c-.5 0-.9 0-1.4.1 1 .2 2 .5 3 .7-.5-.2-1.1-.5-1.6-.8M1118.1 726.7c-1.6-.4-3.3-.9-4.9-1.3.6.5 1.3 1 1.9 1.6 1.1-.2 2.1-.2 3-.3"/><path class="st0" d="M1102 724.8c2.6.8 5.1 1.6 7.6 2.4h.5c-1.9-1.4-3.9-2.8-5.9-4.2-2.8-.7-5.6-1.4-8.5-2.2 2 1.3 4.2 2.7 6.3 4M1086.4 720.1c2.6.8 5.1 1.5 7.6 2.3-2.1-1.2-4.2-2.4-6.4-3.5-2.5-.6-5-1.2-7.6-1.8 2.1.9 4.3 2 6.4 3M1075.4 716.4c-.5 0-.9 0-1.4.1 1.7.5 3.5 1 5.2 1.5-1.3-.6-2.5-1.1-3.8-1.6M1100.6 726.1c1.2.5 2.4.9 3.6 1.3.6 0 1.2 0 1.7-.1-1.3-.8-2.6-1.7-4-2.5-2.6-.8-5.3-1.6-8-2.5 2.3 1.3 4.5 2.5 6.7 3.8"/><path class="st0" d="M1093 723.3c-2.2-1.1-4.4-2.1-6.6-3.2l-7.2-2.1c2.2.9 4.4 1.8 6.5 2.7 2.5.9 4.9 1.7 7.3 2.6M1099.9 726.7c.6.3 1.2.5 1.9.8h1.3c-.8-.5-1.6-.9-2.4-1.4-2.5-.9-5-1.9-7.6-2.8 2.2 1.1 4.5 2.3 6.8 3.4M1073.8 716.5c-23.2.9-59.2 1.2-99.6.5-70-1.2-126.7-4.8-126.6-8 .1-3.2 56.8-4.8 126.8-3.5 17.5.3 34.2.8 49.4 1.3-17.4-1.6-36.2-3.1-55.9-4.4-90-6.1-163.2-6.4-163.6-.7-.4 5.7 72.2 15.2 162.2 21.3 56 3.8 105.5 5.3 135 4.6-.5-.3-1.1-.5-1.6-.8-4.6-2-9.3-4-14.1-6-4-1.5-8-2.9-12-4.3M1100.9 713.4c0-.5-1.7-1.1-4.8-1.7 1.1.8 2.1 1.7 3.2 2.5 1.1-.2 1.6-.5 1.6-.8M1092.1 714.4c-1.9-1.3-3.8-2.6-5.6-3.9-2.6-.3-5.5-.5-8.7-.8 1.9 1.2 3.9 2.4 5.8 3.6 2.9.3 5.7.7 8.5 1.1M1067.9 711.3c2.6.3 5.1.6 7.6.9-1.9-1-3.9-2.1-5.8-3.1-2.4-.2-4.9-.3-7.6-.5 1.9.8 3.8 1.7 5.8 2.7M1053.9 709.7c2.3.2 4.6.5 6.8.7-1.9-.8-3.9-1.5-5.8-2.3-2.2-.1-4.5-.2-6.8-.4 2 .7 3.9 1.3 5.8 2M1041.2 708.4c2.1.2 4.2.4 6.2.6-1.9-.5-3.8-1-5.8-1.6-2-.1-4.1-.2-6.2-.3 2 .5 3.9.9 5.8 1.3M1035.2 707.8l-5.7-.9c-1.9-.1-3.8-.1-5.8-.2 3.9.4 7.8.7 11.5 1.1M1095.7 714.9c-1.2-.2-2.4-.4-3.6-.5.4.3.8.6 1.2.8.9-.1 1.7-.2 2.4-.3"/><path class="st0" d="M1084.2 715.9c1.2-.1 2.3-.1 3.4-.2-1.3-.8-2.7-1.7-4-2.5-2.6-.3-5.3-.7-8-1l6 3.3c.8.1 1.7.3 2.6.4M1066.7 712.8l7.2 1.2c-2-.9-4-1.9-6-2.8-2.3-.3-4.7-.5-7.2-.8l6 2.4M1053.4 710.6c2.2.4 4.4.7 6.5 1.1-2-.7-3.9-1.3-5.9-2-2.1-.2-4.3-.5-6.5-.7 1.9.5 3.9 1.1 5.9 1.6M1047.1 709.6c-1.9-.4-3.9-.8-5.9-1.2l-6-.6c4 .6 8 1.2 11.9 1.8M1082.5 716c-.4-.2-.7-.4-1.1-.6-2.5-.5-5-.9-7.6-1.4 1.5.7 3.1 1.4 4.6 2.2 1.4 0 2.8-.1 4.1-.2M1066 713.8c2.3.5 4.6 1 6.8 1.6-2-.8-4.1-1.7-6.1-2.5-2.2-.4-4.5-.8-6.8-1.1 2 .6 4 1.3 6.1 2"/><path class="st0" d="M1059.5 712.3c-2-.6-4.1-1.1-6.1-1.7-2.1-.3-4.2-.7-6.3-1 4.2.9 8.3 1.8 12.4 2.7M1077 716.3c-1.4-.3-2.8-.7-4.2-1 .9.4 1.7.7 2.6 1.1.5 0 1.1-.1 1.6-.1M1072.3 716c-2.1-.7-4.2-1.5-6.4-2.2-2.1-.5-4.3-1-6.5-1.5 4.4 1.2 8.7 2.5 12.9 3.7M1074 716.4c-.6-.2-1.1-.3-1.7-.5.5.2 1 .3 1.4.5.1.1.2 0 .3 0"/></svg>