<svg id="Calque_1" data-name="Calque 1" xmlns="http://www.w3.org/2000/svg" viewBox="0 0 226.77 226.77"><defs><style>.cls-1,.cls-4{fill:#00ada0;}.cls-2{fill:#1ab5aa;}.cls-3{fill:#7fd6cf;}.cls-4{stroke:#4dc6bd;stroke-miterlimit:10;stroke-width:5.67px;}</style></defs><circle class="cls-1" cx="113.39" cy="113.39" r="113.39"/><path class="cls-2" d="M38.38,33.81s67.43-66.16,147.31-1.54-69.82-.92-69.82-.92-42.69-9.85-71.3,9.23S38.38,33.81,38.38,33.81Z"/><path class="cls-3" d="M113.39,204.09a90.71,90.71,0,1,1,90.7-90.7A90.81,90.81,0,0,1,113.39,204.09Zm0-175.56a84.86,84.86,0,1,0,84.85,84.86A85,85,0,0,0,113.39,28.53Z"/><circle class="cls-4" cx="113.39" cy="113.39" r="85.04"/><path class="cls-2" d="M78.84,148.26c43.3-3,65.75-45.26,65.75-45.26s22.81-34.41,39.26-18.27c-10.92-27.35-37-46.61-67.52-46.61-34.35,0-70.91,15.8-70.91,57.39S54.48,149.94,78.84,148.26Z"/></svg>