<?xml version="1.0" encoding="utf-8"?>
<!-- Generator: Adobe Illustrator 24.1.2, SVG Export Plug-In . SVG Version: 6.00 Build 0)  -->
<svg version="1.1" id="Calque_1" xmlns="http://www.w3.org/2000/svg" xmlns:xlink="http://www.w3.org/1999/xlink" x="0px" y="0px"
	 viewBox="0 0 866.6 218.7" style="enable-background:new 0 0 866.6 218.7;" xml:space="preserve">
<style type="text/css">
	.st0{fill:#FFFFFF;}
	.st1{fill:#00AB9E;}
	.st2{fill:#D7DB2F;}
	.st3{fill:#CCE5E1;}
</style>
<g>
	<path class="st0" d="M860.7,117.6l-22.3-22.3c-3.8-3.8-8.8-5.9-14.1-5.9h-22.3h-2.3v-4.7h24.7c11,0,20-9,20-20V42.3
		c0-5.3-2.1-10.4-5.9-14.1L816,5.9c-3.8-3.8-8.8-5.9-14.1-5.9h-67c-9.9,0-18.1,7.2-19.7,16.7L704.3,5.9c-3.8-3.8-8.8-5.9-14.1-5.9
		h-67c-9.9,0-18.1,7.2-19.7,16.7L592.6,5.9c-3.8-3.8-8.8-5.9-14.1-5.9h-67c-9.9,0-18.1,7.2-19.7,16.7L480.9,5.9
		c-3.8-3.8-8.8-5.9-14.1-5.9h-22.3c-9.9,0-18.1,7.2-19.7,16.7L413.9,5.9c-3.8-3.8-8.8-5.9-14.1-5.9h-67c-11,0-20,9-20,20v2.5
		c-0.8-0.1-1.6-0.1-2.3-0.1h-22.3c-4,0-7.7,1.2-10.9,3.2L257.5,5.9c-3.8-3.8-8.8-5.9-14.1-5.9h-22.3c-9.9,0-18.1,7.2-19.7,16.7
		L190.5,5.9c-3.8-3.8-8.8-5.9-14.1-5.9H154c-9.9,0-18.1,7.2-19.7,16.7L123.5,5.9c-3.8-3.8-8.8-5.9-14.1-5.9H87
		c-9.9,0-18.1,7.2-19.7,16.7L56.5,5.9C52.7,2.1,47.6,0,42.3,0H20C9,0,0,9,0,20v134c0,5.3,2.1,10.4,5.9,14.1l22.3,22.3l22.3,22.3
		c3.8,3.8,8.8,5.9,14.1,5.9H87c9.9,0,18.1-7.2,19.7-16.7l10.8,10.8c3.8,3.8,8.8,5.9,14.1,5.9h44.7c4.1,0,8-1.3,11.2-3.4
		c3.3,2.2,7.2,3.4,11.2,3.4h44.7c4.1,0,8-1.3,11.2-3.4c3.3,2.2,7.2,3.4,11.2,3.4h67c9.9,0,18.1-7.2,19.7-16.7l10.8,10.8
		c3.8,3.8,8.8,5.9,14.1,5.9h67c9.9,0,18.1-7.2,19.7-16.7l10.8,10.8c3.8,3.8,8.8,5.9,14.1,5.9h22.3c9.9,0,18.1-7.2,19.7-16.7
		l10.8,10.8c3.8,3.8,8.8,5.9,14.1,5.9h67c11,0,20-9,20-20v-2.5c0.8,0.1,1.6,0.1,2.3,0.1h22.3c4,0,7.7-1.2,10.9-3.2l19.7,19.7
		c3.8,3.8,8.8,5.9,14.1,5.9h22.3c9.9,0,18.1-7.2,19.7-16.7l10.8,10.8c3.8,3.8,8.8,5.9,14.1,5.9h67c11,0,20-9,20-20v-67
		C866.6,126.4,864.5,121.3,860.7,117.6z"/>
	<g>
		<g>
			<rect x="42.3" y="42.3" class="st1" width="22.3" height="134"/>
			<polygon class="st2" points="64.7,42.3 42.3,20 20,20 20,154 42.3,176.4 42.3,42.3 			"/>
			<polygon class="st3" points="64.7,42.3 87,64.7 87,198.7 64.7,198.7 42.3,176.4 64.7,176.4 			"/>
		</g>
		<g>
			<polygon class="st2" points="109.4,176.4 87,154 87,20 109.4,20 131.7,42.3 131.7,176.4 			"/>
			<polygon class="st3" points="109.4,176.4 131.7,198.7 176.4,198.7 176.4,176.4 154,154 131.7,154 131.7,42.3 109.4,42.3 			"/>
			<polygon class="st1" points="131.7,176.4 154,176.4 154,154 131.7,154 131.7,42.3 109.4,42.3 109.4,154 109.4,176.4 			"/>
		</g>
		<g>
			<polygon class="st2" points="176.4,176.4 154,154 154,20 176.4,20 198.7,42.3 198.7,176.4 			"/>
			<polygon class="st3" points="176.4,176.4 198.7,198.7 243.4,198.7 243.4,176.4 221.1,154 198.7,154 198.7,42.3 176.4,42.3 			"/>
			<polygon class="st1" points="198.7,176.4 221.1,176.4 221.1,154 198.7,154 198.7,42.3 176.4,42.3 176.4,154 176.4,176.4 			"/>
		</g>
		<g>
			<polygon class="st1" points="288.1,42.3 288.1,154 265.7,154 265.7,42.3 243.4,42.3 243.4,154 243.4,176.4 265.7,176.4 
				288.1,176.4 310.4,176.4 310.4,154 310.4,42.3 			"/>
			<polygon class="st2" points="265.7,42.3 243.4,20 221.1,20 221.1,154 243.4,176.4 243.4,42.3 			"/>
			<polygon class="st3" points="310.4,42.3 332.8,64.7 332.8,198.7 265.7,198.7 243.4,176.4 310.4,176.4 			"/>
		</g>
		<g>
			<polygon class="st1" points="422.1,64.7 422.1,42.3 377.4,42.3 355.1,42.3 355.1,64.7 355.1,109.4 355.1,131.7 377.4,131.7 
				399.8,131.7 399.8,154 355.1,154 355.1,176.4 399.8,176.4 422.1,176.4 422.1,154 422.1,131.7 422.1,109.4 399.8,109.4 
				377.4,109.4 377.4,64.7 			"/>
			<polygon class="st2" points="422.1,42.3 399.8,20 332.8,20 332.8,109.4 355.1,131.7 355.1,42.3 			"/>
			<polygon class="st3" points="422.1,109.4 444.5,131.7 444.5,198.7 377.4,198.7 355.1,176.4 422.1,176.4 			"/>
		</g>
		<g>
			<path class="st1" d="M578.5,42.3h-22.3h-22.3v22.3V154v22.3h22.3h22.3h22.3V154V64.7V42.3H578.5z M578.5,154h-22.3V64.7h22.3V154
				z"/>
			<polygon class="st2" points="600.8,42.3 578.5,20 511.5,20 511.5,154 533.8,176.4 533.8,42.3 			"/>
			<polygon class="st3" points="600.8,42.3 623.2,64.7 623.2,198.7 556.2,198.7 533.8,176.4 600.8,176.4 			"/>
		</g>
		<g>
			<polygon class="st1" points="667.9,176.4 667.9,64.7 690.2,64.7 690.2,176.4 712.5,176.4 712.5,64.7 712.5,42.3 690.2,42.3 
				667.9,42.3 645.5,42.3 645.5,64.7 645.5,176.4 			"/>
			<polygon class="st3" points="690.2,176.4 712.5,198.7 734.9,198.7 734.9,64.7 712.5,42.3 712.5,176.4 			"/>
			<polygon class="st2" points="645.5,176.4 623.2,154 623.2,20 690.2,20 712.5,42.3 645.5,42.3 			"/>
		</g>
		<g>
			<polygon class="st1" points="824.2,64.7 824.2,42.3 779.6,42.3 757.2,42.3 757.2,64.7 757.2,109.4 757.2,131.7 779.6,131.7 
				801.9,131.7 801.9,154 757.2,154 757.2,176.4 801.9,176.4 824.2,176.4 824.2,154 824.2,131.7 824.2,109.4 801.9,109.4 
				779.6,109.4 779.6,64.7 			"/>
			<polygon class="st2" points="824.2,42.3 801.9,20 734.9,20 734.9,109.4 757.2,131.7 757.2,42.3 			"/>
			<polygon class="st3" points="824.2,109.4 846.6,131.7 846.6,198.7 779.6,198.7 757.2,176.4 824.2,176.4 			"/>
		</g>
		<g>
			<rect x="466.8" y="42.3" class="st1" width="22.3" height="134"/>
			<polygon class="st2" points="489.1,42.3 466.8,20 444.5,20 444.5,154 466.8,176.4 466.8,42.3 			"/>
			<polygon class="st3" points="489.1,42.3 511.5,64.7 511.5,198.7 489.1,198.7 466.8,176.4 489.1,176.4 			"/>
		</g>
	</g>
</g>
</svg>
